<?xml version="1.0" encoding="UTF-8" standalone="no"?>
<!-- Generator: Adobe Illustrator 15.0.0, SVG Export Plug-In . SVG Version: 6.00 Build 0)  -->

<svg
   xmlns:dc="http://purl.org/dc/elements/1.1/"
   xmlns:cc="http://creativecommons.org/ns#"
   xmlns:rdf="http://www.w3.org/1999/02/22-rdf-syntax-ns#"
   xmlns:svg="http://www.w3.org/2000/svg"
   xmlns="http://www.w3.org/2000/svg"
   xmlns:sodipodi="http://sodipodi.sourceforge.net/DTD/sodipodi-0.dtd"
   xmlns:inkscape="http://www.inkscape.org/namespaces/inkscape"
   version="1.1"
   id="Layer_1"
   x="0px"
   y="0px"
   width="544.65625"
   height="544.5625"
   viewBox="0 0 544.65626 544.56251"
   enable-background="new 0 0 566.93 566.93"
   xml:space="preserve"
   inkscape:version="0.48.2 r9819"
   sodipodi:docname="AJAX.svg"><metadata
   id="metadata17"><rdf:RDF><cc:Work
       rdf:about=""><dc:format>image/svg+xml</dc:format><dc:type
         rdf:resource="http://purl.org/dc/dcmitype/StillImage" /></cc:Work></rdf:RDF></metadata><defs
   id="defs15" /><sodipodi:namedview
   pagecolor="#ffffff"
   bordercolor="#666666"
   borderopacity="1"
   objecttolerance="10"
   gridtolerance="10"
   guidetolerance="10"
   inkscape:pageopacity="0"
   inkscape:pageshadow="2"
   inkscape:window-width="1280"
   inkscape:window-height="1004"
   id="namedview13"
   showgrid="false"
   fit-margin-top="0"
   fit-margin-left="0"
   fit-margin-right="0"
   fit-margin-bottom="0"
   inkscape:zoom="1.1774096"
   inkscape:cx="259.5012"
   inkscape:cy="278.36326"
   inkscape:window-x="-8"
   inkscape:window-y="-8"
   inkscape:window-maximized="1"
   inkscape:current-layer="Layer_1" />
<path
   clip-rule="evenodd"
   d="m 1.509,504.30225 c 0,21.32 17.427,38.747 38.753,38.747 h 464.156 c 21.557,0 38.753,-17.427 38.753,-38.747 v -464.27 c 0,-21.325 -17.196,-38.522 -38.753,-38.522 H 40.262 c -21.326,0 -38.753,17.198 -38.753,38.522 v 464.27 z"
   id="path3"
   inkscape:connector-curvature="0"
   style="fill:#ffffff;fill-rule:evenodd;stroke:none" />
<path
   stroke-miterlimit="10"
   d="m 1.509,504.30225 c 0,21.32 17.427,38.747 38.753,38.747 h 464.156 c 21.557,0 38.753,-17.427 38.753,-38.747 v -464.27 c 0,-21.325 -17.196,-38.522 -38.753,-38.522 H 40.262 c -21.326,0 -38.753,17.198 -38.753,38.522 v 464.27 z"
   id="path5"
   inkscape:connector-curvature="0"
   style="fill:none;stroke:#0072bb;stroke-width:3;stroke-miterlimit:10" />
<path
   clip-rule="evenodd"
   d="m 20.77,40.03225 0,0 c 0,-10.631 8.63,-19.261 19.262,-19.261 h 464.623 c 10.539,0.137 19.025,8.716 19.025,19.261 l -0.006,464.504 c -0.124,10.453 -8.567,18.896 -19.02,19.026 H 40.031 c -10.544,0 -19.13,-8.481 -19.254,-19.026"
   id="path7"
   inkscape:connector-curvature="0"
   style="fill:#0072bb;fill-rule:evenodd;stroke:none" />
<path
   clip-rule="evenodd"
   d="m 137.266,68.69025 v 415.435 h 86.461 v -164.617 l 126.586,-0.224 c 53.004,0 95.991,-42.915 96.084,-95.898 v -58.63 c 0,-53.029 -43.043,-96.065 -96.084,-96.065 m 9.395,105.919 0,0 c 0,-21.444 -17.229,-38.865 -38.549,-38.972 h 0.024 -97.457 v 116.925 h 97.457 -0.024 c 21.319,-0.104 38.549,-17.526 38.549,-38.975 v -38.978 z"
   id="path9"
   inkscape:connector-curvature="0"
   style="fill:#ffffff;fill-rule:evenodd;stroke:none" />

</svg>